<mxfile host="app.diagrams.net" modified="2024-05-01T13:03:27.829Z" agent="Mozilla/5.0 (Windows NT 10.0; Win64; x64) AppleWebKit/537.36 (KHTML, like Gecko) Chrome/124.0.0.0 Safari/537.36" etag="-7uvv00maWwXjsX675Iz" version="24.3.1" type="github">
  <diagram name="Page-1" id="xfSKs2ry3byq8V69ai5H">
    <mxGraphModel dx="1061" dy="524" grid="1" gridSize="10" guides="1" tooltips="1" connect="1" arrows="1" fold="1" page="1" pageScale="1" pageWidth="850" pageHeight="1100" math="0" shadow="0">
      <root>
        <mxCell id="0" />
        <mxCell id="1" parent="0" />
        <mxCell id="AnTp7nM28NXVrXdtCcvm-8" value="" style="edgeStyle=orthogonalEdgeStyle;rounded=0;orthogonalLoop=1;jettySize=auto;html=1;" edge="1" parent="1" source="AnTp7nM28NXVrXdtCcvm-1" target="AnTp7nM28NXVrXdtCcvm-4">
          <mxGeometry relative="1" as="geometry" />
        </mxCell>
        <mxCell id="AnTp7nM28NXVrXdtCcvm-1" value="" style="html=1;verticalLabelPosition=bottom;align=center;labelBackgroundColor=#ffffff;verticalAlign=top;strokeWidth=2;strokeColor=#0080F0;shadow=0;dashed=0;shape=mxgraph.ios7.icons.user;" vertex="1" parent="1">
          <mxGeometry x="30" y="460" width="30" height="30" as="geometry" />
        </mxCell>
        <mxCell id="AnTp7nM28NXVrXdtCcvm-4" value="Onboard" style="rounded=0;whiteSpace=wrap;html=1;" vertex="1" parent="1">
          <mxGeometry x="90" y="457.5" width="120" height="35" as="geometry" />
        </mxCell>
        <mxCell id="AnTp7nM28NXVrXdtCcvm-10" value="" style="edgeStyle=orthogonalEdgeStyle;rounded=0;orthogonalLoop=1;jettySize=auto;html=1;" edge="1" parent="1" source="AnTp7nM28NXVrXdtCcvm-6" target="AnTp7nM28NXVrXdtCcvm-9">
          <mxGeometry relative="1" as="geometry" />
        </mxCell>
        <mxCell id="AnTp7nM28NXVrXdtCcvm-6" value="OTP" style="rounded=0;whiteSpace=wrap;html=1;" vertex="1" parent="1">
          <mxGeometry x="490" y="252.5" width="120" height="35" as="geometry" />
        </mxCell>
        <mxCell id="AnTp7nM28NXVrXdtCcvm-18" value="" style="edgeStyle=orthogonalEdgeStyle;rounded=0;orthogonalLoop=1;jettySize=auto;html=1;" edge="1" parent="1" source="AnTp7nM28NXVrXdtCcvm-9" target="AnTp7nM28NXVrXdtCcvm-17">
          <mxGeometry relative="1" as="geometry" />
        </mxCell>
        <mxCell id="AnTp7nM28NXVrXdtCcvm-9" value="Auth" style="ellipse;whiteSpace=wrap;html=1;rounded=0;" vertex="1" parent="1">
          <mxGeometry x="510" y="435" width="80" height="80" as="geometry" />
        </mxCell>
        <mxCell id="AnTp7nM28NXVrXdtCcvm-36" value="" style="edgeStyle=orthogonalEdgeStyle;rounded=0;orthogonalLoop=1;jettySize=auto;html=1;" edge="1" parent="1" source="AnTp7nM28NXVrXdtCcvm-11" target="AnTp7nM28NXVrXdtCcvm-35">
          <mxGeometry relative="1" as="geometry" />
        </mxCell>
        <mxCell id="AnTp7nM28NXVrXdtCcvm-52" style="edgeStyle=orthogonalEdgeStyle;rounded=0;orthogonalLoop=1;jettySize=auto;html=1;" edge="1" parent="1" source="AnTp7nM28NXVrXdtCcvm-11" target="AnTp7nM28NXVrXdtCcvm-51">
          <mxGeometry relative="1" as="geometry" />
        </mxCell>
        <mxCell id="AnTp7nM28NXVrXdtCcvm-54" value="&lt;font data-sider-select-id=&quot;28c44477-19c1-438e-8477-b85e11f65273&quot; style=&quot;font-size: 15px;&quot;&gt;S3&lt;/font&gt;" style="edgeLabel;html=1;align=center;verticalAlign=middle;resizable=0;points=[];" vertex="1" connectable="0" parent="AnTp7nM28NXVrXdtCcvm-52">
          <mxGeometry x="0.6841" relative="1" as="geometry">
            <mxPoint as="offset" />
          </mxGeometry>
        </mxCell>
        <mxCell id="AnTp7nM28NXVrXdtCcvm-11" value="Create" style="rounded=1;whiteSpace=wrap;html=1;" vertex="1" parent="1">
          <mxGeometry x="880" y="445" width="120" height="60" as="geometry" />
        </mxCell>
        <mxCell id="AnTp7nM28NXVrXdtCcvm-55" style="edgeStyle=orthogonalEdgeStyle;rounded=0;orthogonalLoop=1;jettySize=auto;html=1;" edge="1" parent="1" source="AnTp7nM28NXVrXdtCcvm-12" target="AnTp7nM28NXVrXdtCcvm-51">
          <mxGeometry relative="1" as="geometry" />
        </mxCell>
        <mxCell id="AnTp7nM28NXVrXdtCcvm-12" value="&lt;span id=&quot;docs-internal-guid-98faa22d-7fff-e89b-8a5d-702cfb4901af&quot;&gt;&lt;span style=&quot;font-size: 11pt; font-family: Arial, sans-serif; color: rgb(34, 34, 34); background-color: transparent; font-variant-numeric: normal; font-variant-east-asian: normal; font-variant-alternates: normal; font-variant-position: normal; vertical-align: baseline; white-space-collapse: preserve;&quot;&gt;modifications&lt;/span&gt;&lt;/span&gt;" style="rounded=1;whiteSpace=wrap;html=1;" vertex="1" parent="1">
          <mxGeometry x="650" y="240" width="120" height="60" as="geometry" />
        </mxCell>
        <mxCell id="AnTp7nM28NXVrXdtCcvm-92" value="" style="edgeStyle=orthogonalEdgeStyle;rounded=0;orthogonalLoop=1;jettySize=auto;html=1;startArrow=classic;startFill=1;" edge="1" parent="1" source="AnTp7nM28NXVrXdtCcvm-14" target="AnTp7nM28NXVrXdtCcvm-85">
          <mxGeometry relative="1" as="geometry" />
        </mxCell>
        <mxCell id="AnTp7nM28NXVrXdtCcvm-14" value="&lt;span data-sider-select-id=&quot;3d76378d-ec3a-47fe-b163-d00d9f79d00b&quot; style=&quot;color: rgb(34, 34, 34); font-family: Arial, sans-serif; font-size: 14.6667px; white-space-collapse: preserve;&quot;&gt;access&lt;/span&gt;" style="rounded=1;whiteSpace=wrap;html=1;" vertex="1" parent="1">
          <mxGeometry x="650" y="680" width="120" height="60" as="geometry" />
        </mxCell>
        <mxCell id="AnTp7nM28NXVrXdtCcvm-31" style="edgeStyle=orthogonalEdgeStyle;rounded=0;orthogonalLoop=1;jettySize=auto;html=1;entryX=0;entryY=0.5;entryDx=0;entryDy=0;" edge="1" parent="1" source="AnTp7nM28NXVrXdtCcvm-17" target="AnTp7nM28NXVrXdtCcvm-11">
          <mxGeometry relative="1" as="geometry" />
        </mxCell>
        <mxCell id="AnTp7nM28NXVrXdtCcvm-50" style="edgeStyle=orthogonalEdgeStyle;rounded=0;orthogonalLoop=1;jettySize=auto;html=1;entryX=0.5;entryY=1;entryDx=0;entryDy=0;" edge="1" parent="1" source="AnTp7nM28NXVrXdtCcvm-17" target="AnTp7nM28NXVrXdtCcvm-12">
          <mxGeometry relative="1" as="geometry" />
        </mxCell>
        <mxCell id="AnTp7nM28NXVrXdtCcvm-69" value="" style="edgeStyle=orthogonalEdgeStyle;rounded=0;orthogonalLoop=1;jettySize=auto;html=1;" edge="1" parent="1" source="AnTp7nM28NXVrXdtCcvm-17" target="AnTp7nM28NXVrXdtCcvm-14">
          <mxGeometry relative="1" as="geometry" />
        </mxCell>
        <mxCell id="AnTp7nM28NXVrXdtCcvm-17" value="DOC" style="ellipse;whiteSpace=wrap;html=1;rounded=0;" vertex="1" parent="1">
          <mxGeometry x="670" y="435" width="80" height="80" as="geometry" />
        </mxCell>
        <mxCell id="AnTp7nM28NXVrXdtCcvm-26" value="" style="edgeStyle=orthogonalEdgeStyle;rounded=0;orthogonalLoop=1;jettySize=auto;html=1;" edge="1" parent="1" source="AnTp7nM28NXVrXdtCcvm-20" target="AnTp7nM28NXVrXdtCcvm-25">
          <mxGeometry relative="1" as="geometry" />
        </mxCell>
        <mxCell id="AnTp7nM28NXVrXdtCcvm-29" value="" style="edgeStyle=orthogonalEdgeStyle;rounded=0;orthogonalLoop=1;jettySize=auto;html=1;" edge="1" parent="1" source="AnTp7nM28NXVrXdtCcvm-20" target="AnTp7nM28NXVrXdtCcvm-9">
          <mxGeometry relative="1" as="geometry" />
        </mxCell>
        <mxCell id="AnTp7nM28NXVrXdtCcvm-20" value="&lt;span id=&quot;docs-internal-guid-98faa22d-7fff-e89b-8a5d-702cfb4901af&quot;&gt;&lt;span data-sider-select-id=&quot;96e94ecf-abc2-403f-b6e7-24b41f508e5d&quot; style=&quot;font-size: 11pt; font-family: Arial, sans-serif; color: rgb(34, 34, 34); background-color: transparent; font-variant-numeric: normal; font-variant-east-asian: normal; font-variant-alternates: normal; font-variant-position: normal; vertical-align: baseline; white-space-collapse: preserve;&quot;&gt;Wallet&lt;/span&gt;&lt;/span&gt;" style="rounded=1;whiteSpace=wrap;html=1;" vertex="1" parent="1">
          <mxGeometry x="250" y="445" width="120" height="60" as="geometry" />
        </mxCell>
        <mxCell id="AnTp7nM28NXVrXdtCcvm-28" value="" style="edgeStyle=orthogonalEdgeStyle;rounded=0;orthogonalLoop=1;jettySize=auto;html=1;" edge="1" parent="1" source="AnTp7nM28NXVrXdtCcvm-24" target="AnTp7nM28NXVrXdtCcvm-6">
          <mxGeometry relative="1" as="geometry" />
        </mxCell>
        <mxCell id="AnTp7nM28NXVrXdtCcvm-34" value="" style="edgeStyle=orthogonalEdgeStyle;rounded=0;orthogonalLoop=1;jettySize=auto;html=1;" edge="1" parent="1" source="AnTp7nM28NXVrXdtCcvm-24" target="AnTp7nM28NXVrXdtCcvm-33">
          <mxGeometry relative="1" as="geometry" />
        </mxCell>
        <mxCell id="AnTp7nM28NXVrXdtCcvm-24" value="Create Account API" style="rounded=1;whiteSpace=wrap;html=1;" vertex="1" parent="1">
          <mxGeometry x="250" y="240" width="120" height="60" as="geometry" />
        </mxCell>
        <mxCell id="AnTp7nM28NXVrXdtCcvm-27" value="" style="edgeStyle=orthogonalEdgeStyle;rounded=0;orthogonalLoop=1;jettySize=auto;html=1;" edge="1" parent="1" source="AnTp7nM28NXVrXdtCcvm-25" target="AnTp7nM28NXVrXdtCcvm-24">
          <mxGeometry relative="1" as="geometry" />
        </mxCell>
        <mxCell id="AnTp7nM28NXVrXdtCcvm-25" value="Exist" style="rhombus;whiteSpace=wrap;html=1;" vertex="1" parent="1">
          <mxGeometry x="270" y="340" width="80" height="80" as="geometry" />
        </mxCell>
        <mxCell id="AnTp7nM28NXVrXdtCcvm-33" value="Kresus&lt;br&gt;Wallet&lt;br&gt;provider" style="whiteSpace=wrap;html=1;aspect=fixed;" vertex="1" parent="1">
          <mxGeometry x="250" y="60" width="120" height="120" as="geometry" />
        </mxCell>
        <mxCell id="AnTp7nM28NXVrXdtCcvm-38" value="" style="edgeStyle=orthogonalEdgeStyle;rounded=0;orthogonalLoop=1;jettySize=auto;html=1;" edge="1" parent="1" source="AnTp7nM28NXVrXdtCcvm-35" target="AnTp7nM28NXVrXdtCcvm-37">
          <mxGeometry relative="1" as="geometry" />
        </mxCell>
        <mxCell id="AnTp7nM28NXVrXdtCcvm-60" style="edgeStyle=orthogonalEdgeStyle;rounded=0;orthogonalLoop=1;jettySize=auto;html=1;entryX=0.5;entryY=0;entryDx=0;entryDy=0;" edge="1" parent="1" source="AnTp7nM28NXVrXdtCcvm-35" target="AnTp7nM28NXVrXdtCcvm-56">
          <mxGeometry relative="1" as="geometry">
            <Array as="points">
              <mxPoint x="1170" y="560" />
              <mxPoint x="1310" y="560" />
            </Array>
          </mxGeometry>
        </mxCell>
        <mxCell id="AnTp7nM28NXVrXdtCcvm-35" value="Doc Bytes" style="ellipse;whiteSpace=wrap;html=1;rounded=1;" vertex="1" parent="1">
          <mxGeometry x="1130" y="435" width="80" height="80" as="geometry" />
        </mxCell>
        <mxCell id="AnTp7nM28NXVrXdtCcvm-42" value="" style="edgeStyle=orthogonalEdgeStyle;rounded=0;orthogonalLoop=1;jettySize=auto;html=1;" edge="1" parent="1" source="AnTp7nM28NXVrXdtCcvm-37" target="AnTp7nM28NXVrXdtCcvm-41">
          <mxGeometry relative="1" as="geometry" />
        </mxCell>
        <mxCell id="AnTp7nM28NXVrXdtCcvm-59" style="edgeStyle=orthogonalEdgeStyle;rounded=0;orthogonalLoop=1;jettySize=auto;html=1;entryX=0.5;entryY=0;entryDx=0;entryDy=0;" edge="1" parent="1" source="AnTp7nM28NXVrXdtCcvm-37" target="AnTp7nM28NXVrXdtCcvm-56">
          <mxGeometry relative="1" as="geometry" />
        </mxCell>
        <mxCell id="AnTp7nM28NXVrXdtCcvm-37" value="Doc hash" style="whiteSpace=wrap;html=1;rounded=1;" vertex="1" parent="1">
          <mxGeometry x="1250" y="445" width="120" height="60" as="geometry" />
        </mxCell>
        <mxCell id="AnTp7nM28NXVrXdtCcvm-40" style="edgeStyle=orthogonalEdgeStyle;rounded=0;orthogonalLoop=1;jettySize=auto;html=1;" edge="1" parent="1" source="AnTp7nM28NXVrXdtCcvm-39" target="AnTp7nM28NXVrXdtCcvm-37">
          <mxGeometry relative="1" as="geometry" />
        </mxCell>
        <mxCell id="AnTp7nM28NXVrXdtCcvm-39" value="SHA256" style="rounded=1;whiteSpace=wrap;html=1;" vertex="1" parent="1">
          <mxGeometry x="1250" y="230" width="120" height="60" as="geometry" />
        </mxCell>
        <mxCell id="AnTp7nM28NXVrXdtCcvm-58" style="edgeStyle=orthogonalEdgeStyle;rounded=0;orthogonalLoop=1;jettySize=auto;html=1;" edge="1" parent="1" source="AnTp7nM28NXVrXdtCcvm-41" target="AnTp7nM28NXVrXdtCcvm-56">
          <mxGeometry relative="1" as="geometry">
            <Array as="points">
              <mxPoint x="1470" y="560" />
              <mxPoint x="1310" y="560" />
            </Array>
          </mxGeometry>
        </mxCell>
        <mxCell id="AnTp7nM28NXVrXdtCcvm-41" value="Signature" style="whiteSpace=wrap;html=1;rounded=1;" vertex="1" parent="1">
          <mxGeometry x="1410" y="445" width="120" height="60" as="geometry" />
        </mxCell>
        <mxCell id="AnTp7nM28NXVrXdtCcvm-45" style="edgeStyle=orthogonalEdgeStyle;rounded=0;orthogonalLoop=1;jettySize=auto;html=1;" edge="1" parent="1" source="AnTp7nM28NXVrXdtCcvm-44" target="AnTp7nM28NXVrXdtCcvm-41">
          <mxGeometry relative="1" as="geometry" />
        </mxCell>
        <mxCell id="AnTp7nM28NXVrXdtCcvm-46" value="Kresus Signer" style="edgeLabel;html=1;align=center;verticalAlign=middle;resizable=0;points=[];" vertex="1" connectable="0" parent="AnTp7nM28NXVrXdtCcvm-45">
          <mxGeometry x="-0.8871" y="-1" relative="1" as="geometry">
            <mxPoint x="1" y="13" as="offset" />
          </mxGeometry>
        </mxCell>
        <mxCell id="AnTp7nM28NXVrXdtCcvm-44" value="" style="image;aspect=fixed;perimeter=ellipsePerimeter;html=1;align=center;shadow=0;dashed=0;fontColor=#4277BB;labelBackgroundColor=default;fontSize=12;spacingTop=3;image=img/lib/ibm/blockchain/wallet.svg;" vertex="1" parent="1">
          <mxGeometry x="1440" y="228" width="60" height="60" as="geometry" />
        </mxCell>
        <mxCell id="AnTp7nM28NXVrXdtCcvm-48" value="" style="edgeStyle=orthogonalEdgeStyle;rounded=0;orthogonalLoop=1;jettySize=auto;html=1;" edge="1" parent="1" source="AnTp7nM28NXVrXdtCcvm-47" target="AnTp7nM28NXVrXdtCcvm-39">
          <mxGeometry relative="1" as="geometry" />
        </mxCell>
        <mxCell id="AnTp7nM28NXVrXdtCcvm-47" value="Ethers JS" style="shape=process;whiteSpace=wrap;html=1;backgroundOutline=1;" vertex="1" parent="1">
          <mxGeometry x="1250" y="130" width="120" height="60" as="geometry" />
        </mxCell>
        <mxCell id="AnTp7nM28NXVrXdtCcvm-57" value="" style="edgeStyle=orthogonalEdgeStyle;rounded=0;orthogonalLoop=1;jettySize=auto;html=1;" edge="1" parent="1" source="AnTp7nM28NXVrXdtCcvm-49" target="AnTp7nM28NXVrXdtCcvm-56">
          <mxGeometry relative="1" as="geometry" />
        </mxCell>
        <mxCell id="AnTp7nM28NXVrXdtCcvm-89" value="" style="edgeStyle=orthogonalEdgeStyle;rounded=0;orthogonalLoop=1;jettySize=auto;html=1;" edge="1" parent="1" source="AnTp7nM28NXVrXdtCcvm-49" target="AnTp7nM28NXVrXdtCcvm-88">
          <mxGeometry relative="1" as="geometry" />
        </mxCell>
        <mxCell id="AnTp7nM28NXVrXdtCcvm-49" value="Contract" style="rounded=1;whiteSpace=wrap;html=1;" vertex="1" parent="1">
          <mxGeometry x="1250" y="680" width="120" height="60" as="geometry" />
        </mxCell>
        <mxCell id="AnTp7nM28NXVrXdtCcvm-51" value="" style="verticalLabelPosition=bottom;html=1;verticalAlign=top;strokeWidth=1;align=center;outlineConnect=0;dashed=0;outlineConnect=0;shape=mxgraph.aws3d.s3Bucket;fillColor=#4286c5;strokeColor=#57A2D8;aspect=fixed;" vertex="1" parent="1">
          <mxGeometry x="909.25" y="310" width="61.5" height="63.800000000000004" as="geometry" />
        </mxCell>
        <mxCell id="AnTp7nM28NXVrXdtCcvm-62" value="" style="edgeStyle=orthogonalEdgeStyle;rounded=0;orthogonalLoop=1;jettySize=auto;html=1;" edge="1" parent="1" source="AnTp7nM28NXVrXdtCcvm-56" target="AnTp7nM28NXVrXdtCcvm-61">
          <mxGeometry relative="1" as="geometry" />
        </mxCell>
        <mxCell id="AnTp7nM28NXVrXdtCcvm-56" value="StoreDoc" style="rounded=1;whiteSpace=wrap;html=1;" vertex="1" parent="1">
          <mxGeometry x="1250" y="590" width="120" height="60" as="geometry" />
        </mxCell>
        <mxCell id="AnTp7nM28NXVrXdtCcvm-61" value="DocStorageStruct" style="rounded=0;whiteSpace=wrap;html=1;" vertex="1" parent="1">
          <mxGeometry x="1400" y="600" width="120" height="40" as="geometry" />
        </mxCell>
        <mxCell id="AnTp7nM28NXVrXdtCcvm-63" value="Ecrecover" style="rounded=0;whiteSpace=wrap;html=1;" vertex="1" parent="1">
          <mxGeometry x="1100" y="600" width="120" height="40" as="geometry" />
        </mxCell>
        <mxCell id="AnTp7nM28NXVrXdtCcvm-66" value="Emit newDoc Event" style="rounded=0;whiteSpace=wrap;html=1;" vertex="1" parent="1">
          <mxGeometry x="1250" y="865" width="120" height="40" as="geometry" />
        </mxCell>
        <mxCell id="AnTp7nM28NXVrXdtCcvm-68" value="" style="rounded=0;whiteSpace=wrap;html=1;" vertex="1" parent="1">
          <mxGeometry x="2230" y="540" width="680" height="310" as="geometry" />
        </mxCell>
        <mxCell id="AnTp7nM28NXVrXdtCcvm-79" value="" style="edgeStyle=orthogonalEdgeStyle;rounded=0;orthogonalLoop=1;jettySize=auto;html=1;" edge="1" parent="1" source="AnTp7nM28NXVrXdtCcvm-70" target="AnTp7nM28NXVrXdtCcvm-78">
          <mxGeometry relative="1" as="geometry" />
        </mxCell>
        <mxCell id="AnTp7nM28NXVrXdtCcvm-70" value="Web socket" style="ellipse;whiteSpace=wrap;html=1;aspect=fixed;" vertex="1" parent="1">
          <mxGeometry x="629.25" y="955" width="80" height="80" as="geometry" />
        </mxCell>
        <mxCell id="AnTp7nM28NXVrXdtCcvm-105" value="" style="edgeStyle=orthogonalEdgeStyle;rounded=0;orthogonalLoop=1;jettySize=auto;html=1;" edge="1" parent="1" source="AnTp7nM28NXVrXdtCcvm-72" target="AnTp7nM28NXVrXdtCcvm-104">
          <mxGeometry relative="1" as="geometry" />
        </mxCell>
        <mxCell id="AnTp7nM28NXVrXdtCcvm-72" value="Postgres&lt;br&gt;DB" style="shape=datastore;whiteSpace=wrap;html=1;" vertex="1" parent="1">
          <mxGeometry x="130" y="955" width="60" height="80" as="geometry" />
        </mxCell>
        <mxCell id="AnTp7nM28NXVrXdtCcvm-75" value="Emit modDoc Event" style="rounded=0;whiteSpace=wrap;html=1;" vertex="1" parent="1">
          <mxGeometry x="1250" y="915" width="120" height="40" as="geometry" />
        </mxCell>
        <mxCell id="AnTp7nM28NXVrXdtCcvm-94" style="edgeStyle=orthogonalEdgeStyle;rounded=0;orthogonalLoop=1;jettySize=auto;html=1;" edge="1" parent="1" source="AnTp7nM28NXVrXdtCcvm-78" target="AnTp7nM28NXVrXdtCcvm-93">
          <mxGeometry relative="1" as="geometry" />
        </mxCell>
        <mxCell id="AnTp7nM28NXVrXdtCcvm-78" value="Filter Event" style="whiteSpace=wrap;html=1;" vertex="1" parent="1">
          <mxGeometry x="450" y="965" width="120" height="60" as="geometry" />
        </mxCell>
        <mxCell id="AnTp7nM28NXVrXdtCcvm-102" value="" style="edgeStyle=orthogonalEdgeStyle;rounded=0;orthogonalLoop=1;jettySize=auto;html=1;" edge="1" parent="1" source="AnTp7nM28NXVrXdtCcvm-85" target="AnTp7nM28NXVrXdtCcvm-101">
          <mxGeometry relative="1" as="geometry" />
        </mxCell>
        <mxCell id="AnTp7nM28NXVrXdtCcvm-85" value="&lt;span data-sider-select-id=&quot;3d76378d-ec3a-47fe-b163-d00d9f79d00b&quot; style=&quot;color: rgb(34, 34, 34); font-family: Arial, sans-serif; font-size: 14.6667px; white-space-collapse: preserve;&quot;&gt;Sign DOC hash&lt;/span&gt;" style="rounded=1;whiteSpace=wrap;html=1;" vertex="1" parent="1">
          <mxGeometry x="880" y="680" width="120" height="60" as="geometry" />
        </mxCell>
        <mxCell id="AnTp7nM28NXVrXdtCcvm-90" value="" style="edgeStyle=orthogonalEdgeStyle;rounded=0;orthogonalLoop=1;jettySize=auto;html=1;" edge="1" parent="1" source="AnTp7nM28NXVrXdtCcvm-88" target="AnTp7nM28NXVrXdtCcvm-63">
          <mxGeometry relative="1" as="geometry" />
        </mxCell>
        <mxCell id="AnTp7nM28NXVrXdtCcvm-91" value="" style="edgeStyle=orthogonalEdgeStyle;rounded=0;orthogonalLoop=1;jettySize=auto;html=1;" edge="1" parent="1" source="AnTp7nM28NXVrXdtCcvm-88" target="AnTp7nM28NXVrXdtCcvm-85">
          <mxGeometry relative="1" as="geometry" />
        </mxCell>
        <mxCell id="AnTp7nM28NXVrXdtCcvm-88" value="ValidSigner" style="rounded=1;whiteSpace=wrap;html=1;" vertex="1" parent="1">
          <mxGeometry x="1100" y="680" width="120" height="60" as="geometry" />
        </mxCell>
        <mxCell id="AnTp7nM28NXVrXdtCcvm-95" value="" style="edgeStyle=orthogonalEdgeStyle;rounded=0;orthogonalLoop=1;jettySize=auto;html=1;" edge="1" parent="1" source="AnTp7nM28NXVrXdtCcvm-93" target="AnTp7nM28NXVrXdtCcvm-72">
          <mxGeometry relative="1" as="geometry" />
        </mxCell>
        <mxCell id="AnTp7nM28NXVrXdtCcvm-93" value="Event Handler" style="whiteSpace=wrap;html=1;" vertex="1" parent="1">
          <mxGeometry x="270" y="965" width="120" height="60" as="geometry" />
        </mxCell>
        <mxCell id="AnTp7nM28NXVrXdtCcvm-97" style="edgeStyle=orthogonalEdgeStyle;rounded=0;orthogonalLoop=1;jettySize=auto;html=1;" edge="1" parent="1" source="AnTp7nM28NXVrXdtCcvm-96" target="AnTp7nM28NXVrXdtCcvm-56">
          <mxGeometry relative="1" as="geometry">
            <Array as="points">
              <mxPoint x="1610" y="560" />
              <mxPoint x="1310" y="560" />
            </Array>
          </mxGeometry>
        </mxCell>
        <mxCell id="AnTp7nM28NXVrXdtCcvm-96" value="TimeStamp" style="whiteSpace=wrap;html=1;rounded=1;" vertex="1" parent="1">
          <mxGeometry x="1550" y="445" width="120" height="60" as="geometry" />
        </mxCell>
        <mxCell id="AnTp7nM28NXVrXdtCcvm-100" value="" style="edgeStyle=orthogonalEdgeStyle;rounded=0;orthogonalLoop=1;jettySize=auto;html=1;" edge="1" parent="1" source="AnTp7nM28NXVrXdtCcvm-98" target="AnTp7nM28NXVrXdtCcvm-61">
          <mxGeometry relative="1" as="geometry" />
        </mxCell>
        <mxCell id="AnTp7nM28NXVrXdtCcvm-98" value="Emuneration.sol" style="rounded=0;whiteSpace=wrap;html=1;" vertex="1" parent="1">
          <mxGeometry x="1550" y="600" width="120" height="40" as="geometry" />
        </mxCell>
        <mxCell id="AnTp7nM28NXVrXdtCcvm-101" value="IsValidSigner" style="rhombus;whiteSpace=wrap;html=1;" vertex="1" parent="1">
          <mxGeometry x="890" y="790" width="100" height="105" as="geometry" />
        </mxCell>
        <mxCell id="AnTp7nM28NXVrXdtCcvm-103" value="GetDoc" style="rounded=0;whiteSpace=wrap;html=1;" vertex="1" parent="1">
          <mxGeometry x="340" y="700" width="120" height="40" as="geometry" />
        </mxCell>
        <mxCell id="AnTp7nM28NXVrXdtCcvm-104" value="API" style="rounded=0;whiteSpace=wrap;html=1;" vertex="1" parent="1">
          <mxGeometry x="100" y="830" width="120" height="60" as="geometry" />
        </mxCell>
        <mxCell id="AnTp7nM28NXVrXdtCcvm-106" value="GetDoc" style="rounded=0;whiteSpace=wrap;html=1;" vertex="1" parent="1">
          <mxGeometry x="340" y="750" width="120" height="40" as="geometry" />
        </mxCell>
      </root>
    </mxGraphModel>
  </diagram>
</mxfile>
